<mxfile host="app.diagrams.net" modified="2024-01-02T22:15:45.072Z" agent="Mozilla/5.0 (Macintosh; Intel Mac OS X 10_15_7) AppleWebKit/537.36 (KHTML, like Gecko) Chrome/120.0.0.0 Safari/537.36" etag="_8etxTL8O153-YnYPx89" version="22.1.16" type="device">
  <diagram name="Seite-1" id="YpY-XhgHn_O2BCv8NfTr">
    <mxGraphModel dx="2314" dy="1156" grid="1" gridSize="10" guides="1" tooltips="1" connect="1" arrows="1" fold="1" page="1" pageScale="1" pageWidth="1169" pageHeight="827" math="0" shadow="0">
      <root>
        <mxCell id="0" />
        <mxCell id="1" parent="0" />
        <mxCell id="QEzqxZdG3EroJ6TDsT4L-1" value="Producer" style="rounded=1;whiteSpace=wrap;html=1;strokeColor=#3333FF;" parent="1" vertex="1">
          <mxGeometry x="80" y="257" width="120" height="60" as="geometry" />
        </mxCell>
        <mxCell id="QEzqxZdG3EroJ6TDsT4L-2" value="Producer" style="rounded=1;whiteSpace=wrap;html=1;strokeColor=#3333FF;" parent="1" vertex="1">
          <mxGeometry x="80" y="607" width="120" height="60" as="geometry" />
        </mxCell>
        <mxCell id="QEzqxZdG3EroJ6TDsT4L-4" value="Consumer" style="rounded=1;whiteSpace=wrap;html=1;strokeColor=#009900;" parent="1" vertex="1">
          <mxGeometry x="960" y="257" width="120" height="60" as="geometry" />
        </mxCell>
        <mxCell id="QEzqxZdG3EroJ6TDsT4L-5" value="Consumer" style="rounded=1;whiteSpace=wrap;html=1;strokeColor=#009900;" parent="1" vertex="1">
          <mxGeometry x="960" y="377" width="120" height="60" as="geometry" />
        </mxCell>
        <mxCell id="QEzqxZdG3EroJ6TDsT4L-6" value="Consumer" style="rounded=1;whiteSpace=wrap;html=1;strokeColor=#009900;" parent="1" vertex="1">
          <mxGeometry x="960" y="487" width="120" height="60" as="geometry" />
        </mxCell>
        <mxCell id="QEzqxZdG3EroJ6TDsT4L-7" value="Consumer" style="rounded=1;whiteSpace=wrap;html=1;strokeColor=#009900;" parent="1" vertex="1">
          <mxGeometry x="960" y="607" width="120" height="60" as="geometry" />
        </mxCell>
        <mxCell id="QEzqxZdG3EroJ6TDsT4L-8" value="Kafka Broker 1" style="rounded=1;whiteSpace=wrap;html=1;" parent="1" vertex="1">
          <mxGeometry x="448" y="137" width="240" height="60" as="geometry" />
        </mxCell>
        <mxCell id="QEzqxZdG3EroJ6TDsT4L-9" value="Topic Fraud&lt;br&gt;Partition 0" style="rounded=1;whiteSpace=wrap;html=1;" parent="1" vertex="1">
          <mxGeometry x="508" y="257" width="120" height="60" as="geometry" />
        </mxCell>
        <mxCell id="QEzqxZdG3EroJ6TDsT4L-10" value="Topic Fraud&lt;br&gt;Partition 1&lt;br&gt;In-Sync Replica" style="rounded=1;whiteSpace=wrap;html=1;" parent="1" vertex="1">
          <mxGeometry x="508" y="197" width="120" height="60" as="geometry" />
        </mxCell>
        <mxCell id="QEzqxZdG3EroJ6TDsT4L-11" value="Kafka Broker 2" style="rounded=1;whiteSpace=wrap;html=1;" parent="1" vertex="1">
          <mxGeometry x="448" y="757" width="240" height="60" as="geometry" />
        </mxCell>
        <mxCell id="QEzqxZdG3EroJ6TDsT4L-12" value="Topic Fraud&lt;br&gt;Partition 1" style="rounded=1;whiteSpace=wrap;html=1;" parent="1" vertex="1">
          <mxGeometry x="508" y="697" width="120" height="60" as="geometry" />
        </mxCell>
        <mxCell id="QEzqxZdG3EroJ6TDsT4L-13" value="Topic Fraud&lt;br&gt;Partition 0&lt;br&gt;In-Sync Replica" style="rounded=1;whiteSpace=wrap;html=1;" parent="1" vertex="1">
          <mxGeometry x="508" y="637" width="120" height="60" as="geometry" />
        </mxCell>
        <mxCell id="QEzqxZdG3EroJ6TDsT4L-14" value="" style="endArrow=classic;html=1;rounded=0;exitX=1;exitY=0.5;exitDx=0;exitDy=0;entryX=0;entryY=0.5;entryDx=0;entryDy=0;strokeColor=#3333FF;" parent="1" source="QEzqxZdG3EroJ6TDsT4L-1" target="QEzqxZdG3EroJ6TDsT4L-12" edge="1">
          <mxGeometry width="50" height="50" relative="1" as="geometry">
            <mxPoint x="580" y="437" as="sourcePoint" />
            <mxPoint x="560" y="487" as="targetPoint" />
          </mxGeometry>
        </mxCell>
        <mxCell id="QEzqxZdG3EroJ6TDsT4L-15" value="Producer" style="rounded=1;whiteSpace=wrap;html=1;strokeColor=#3333FF;" parent="1" vertex="1">
          <mxGeometry x="80" y="441" width="120" height="60" as="geometry" />
        </mxCell>
        <mxCell id="QEzqxZdG3EroJ6TDsT4L-16" value="" style="endArrow=classic;html=1;rounded=0;exitX=1;exitY=0.5;exitDx=0;exitDy=0;entryX=0;entryY=0.5;entryDx=0;entryDy=0;strokeColor=#3333FF;" parent="1" source="QEzqxZdG3EroJ6TDsT4L-15" target="QEzqxZdG3EroJ6TDsT4L-9" edge="1">
          <mxGeometry width="50" height="50" relative="1" as="geometry">
            <mxPoint x="240" y="407" as="sourcePoint" />
            <mxPoint x="589" y="511" as="targetPoint" />
          </mxGeometry>
        </mxCell>
        <mxCell id="QEzqxZdG3EroJ6TDsT4L-17" value="" style="endArrow=classic;html=1;rounded=0;entryX=0;entryY=0.5;entryDx=0;entryDy=0;exitX=1;exitY=0.5;exitDx=0;exitDy=0;strokeColor=#3333FF;" parent="1" source="QEzqxZdG3EroJ6TDsT4L-2" target="QEzqxZdG3EroJ6TDsT4L-12" edge="1">
          <mxGeometry width="50" height="50" relative="1" as="geometry">
            <mxPoint x="250" y="407" as="sourcePoint" />
            <mxPoint x="589" y="511" as="targetPoint" />
          </mxGeometry>
        </mxCell>
        <mxCell id="QEzqxZdG3EroJ6TDsT4L-23" value="" style="edgeStyle=elbowEdgeStyle;elbow=horizontal;endArrow=classic;html=1;curved=0;rounded=0;endSize=8;startSize=8;exitX=1;exitY=0.5;exitDx=0;exitDy=0;entryX=1;entryY=0.5;entryDx=0;entryDy=0;" parent="1" source="QEzqxZdG3EroJ6TDsT4L-12" target="QEzqxZdG3EroJ6TDsT4L-10" edge="1">
          <mxGeometry width="50" height="50" relative="1" as="geometry">
            <mxPoint x="520" y="447" as="sourcePoint" />
            <mxPoint x="570" y="397" as="targetPoint" />
            <Array as="points">
              <mxPoint x="690" y="487" />
            </Array>
          </mxGeometry>
        </mxCell>
        <mxCell id="QEzqxZdG3EroJ6TDsT4L-24" value="" style="endArrow=classic;html=1;rounded=0;exitX=1;exitY=0.5;exitDx=0;exitDy=0;entryX=0;entryY=0.5;entryDx=0;entryDy=0;strokeColor=#009900;" parent="1" source="QEzqxZdG3EroJ6TDsT4L-12" target="QEzqxZdG3EroJ6TDsT4L-4" edge="1">
          <mxGeometry width="50" height="50" relative="1" as="geometry">
            <mxPoint x="240" y="297" as="sourcePoint" />
            <mxPoint x="589" y="511" as="targetPoint" />
          </mxGeometry>
        </mxCell>
        <mxCell id="QEzqxZdG3EroJ6TDsT4L-25" value="" style="endArrow=classic;html=1;rounded=0;exitX=1;exitY=0.5;exitDx=0;exitDy=0;entryX=0;entryY=0.5;entryDx=0;entryDy=0;strokeColor=#009900;" parent="1" source="QEzqxZdG3EroJ6TDsT4L-9" target="QEzqxZdG3EroJ6TDsT4L-5" edge="1">
          <mxGeometry width="50" height="50" relative="1" as="geometry">
            <mxPoint x="709" y="511" as="sourcePoint" />
            <mxPoint x="910" y="287" as="targetPoint" />
          </mxGeometry>
        </mxCell>
        <mxCell id="QEzqxZdG3EroJ6TDsT4L-26" value="" style="endArrow=classic;html=1;rounded=0;exitX=1;exitY=0.5;exitDx=0;exitDy=0;entryX=0;entryY=0.5;entryDx=0;entryDy=0;strokeColor=#009900;" parent="1" source="QEzqxZdG3EroJ6TDsT4L-12" target="QEzqxZdG3EroJ6TDsT4L-6" edge="1">
          <mxGeometry width="50" height="50" relative="1" as="geometry">
            <mxPoint x="719" y="521" as="sourcePoint" />
            <mxPoint x="920" y="297" as="targetPoint" />
          </mxGeometry>
        </mxCell>
        <mxCell id="QEzqxZdG3EroJ6TDsT4L-27" value="" style="endArrow=classic;html=1;rounded=0;exitX=1;exitY=0.5;exitDx=0;exitDy=0;entryX=0;entryY=0.5;entryDx=0;entryDy=0;strokeColor=#009900;" parent="1" source="QEzqxZdG3EroJ6TDsT4L-9" target="QEzqxZdG3EroJ6TDsT4L-7" edge="1">
          <mxGeometry width="50" height="50" relative="1" as="geometry">
            <mxPoint x="729" y="531" as="sourcePoint" />
            <mxPoint x="930" y="307" as="targetPoint" />
          </mxGeometry>
        </mxCell>
        <mxCell id="QEzqxZdG3EroJ6TDsT4L-28" value="" style="endArrow=classic;html=1;rounded=0;exitX=0.5;exitY=1;exitDx=0;exitDy=0;entryX=0.5;entryY=0;entryDx=0;entryDy=0;" parent="1" source="QEzqxZdG3EroJ6TDsT4L-9" target="QEzqxZdG3EroJ6TDsT4L-13" edge="1">
          <mxGeometry width="50" height="50" relative="1" as="geometry">
            <mxPoint x="490" y="497" as="sourcePoint" />
            <mxPoint x="600" y="617" as="targetPoint" />
          </mxGeometry>
        </mxCell>
        <mxCell id="QEzqxZdG3EroJ6TDsT4L-32" value="Send transactions&lt;br&gt;continuously to Kafka cluster" style="text;html=1;align=center;verticalAlign=middle;resizable=0;points=[];autosize=1;strokeColor=none;fillColor=none;" parent="1" vertex="1">
          <mxGeometry x="240" y="207" width="180" height="40" as="geometry" />
        </mxCell>
        <mxCell id="QEzqxZdG3EroJ6TDsT4L-33" value="Read transactions&lt;br&gt;continuously from Kafka cluster" style="text;html=1;align=center;verticalAlign=middle;resizable=0;points=[];autosize=1;strokeColor=none;fillColor=none;" parent="1" vertex="1">
          <mxGeometry x="735" y="207" width="190" height="40" as="geometry" />
        </mxCell>
        <mxCell id="QEzqxZdG3EroJ6TDsT4L-34" value="Process, partition, replicate, and store&lt;br&gt;incoming transactions data stream" style="text;html=1;align=center;verticalAlign=middle;resizable=0;points=[];autosize=1;strokeColor=none;fillColor=none;" parent="1" vertex="1">
          <mxGeometry x="458" y="77" width="220" height="40" as="geometry" />
        </mxCell>
        <mxCell id="trtpsHsNvDeJuktuZ78u-1" value="" style="shape=image;verticalLabelPosition=bottom;labelBackgroundColor=default;verticalAlign=top;aspect=fixed;imageAspect=0;image=https://datasolut.com/wp-content/uploads/2019/11/Apache_Spark_logo.svg.png;" vertex="1" parent="1">
          <mxGeometry x="100" y="196.99999999999997" width="80" height="41.67" as="geometry" />
        </mxCell>
        <mxCell id="trtpsHsNvDeJuktuZ78u-3" value="" style="shape=image;verticalLabelPosition=bottom;labelBackgroundColor=default;verticalAlign=top;aspect=fixed;imageAspect=0;image=https://datasolut.com/wp-content/uploads/2019/11/Apache_Spark_logo.svg.png;" vertex="1" parent="1">
          <mxGeometry x="980" y="196.99999999999997" width="80" height="41.67" as="geometry" />
        </mxCell>
        <mxCell id="trtpsHsNvDeJuktuZ78u-4" value="" style="shape=image;verticalLabelPosition=bottom;labelBackgroundColor=default;verticalAlign=top;aspect=fixed;imageAspect=0;image=https://static-00.iconduck.com/assets.00/kafka-icon-2048x935-cvu4503l.png;" vertex="1" parent="1">
          <mxGeometry x="523" y="29.999999999999993" width="90" height="41.1" as="geometry" />
        </mxCell>
      </root>
    </mxGraphModel>
  </diagram>
</mxfile>
